<svg xmlns="http://www.w3.org/2000/svg" xmlns:xlink="http://www.w3.org/1999/xlink" width="400" height="400" viewBox="0 0 400 400">
<rect data-name="background" width="100%" height="100%" fill="#313131"/><g data-name="container" data="container_num:13" fill="#f8f8f8" transform="translate(51.19999999999999,51.19999999999999) scale(2.9760000000000004)"><path xmlns="http://www.w3.org/2000/svg" d="M0 0h100v100H0z"/></g><g data-name="monogram" fill="#313131" data="id:165" transform="translate(157.9708950026988,121.36403832193196) scale(2.3349501539177346)"><path d="M19.76,30.64l1.8-3.12l5.44,9.36l3.6,0c-0.8-1.28-8.4-14.28-9.04-15.56l-7.84,13.6l-2.92,5.08l-10.8,0c0.6-1,4.64-8.04,8.52-14.8c2.28-3.96,4.8-8.4,7.64-13.24l3.6,0l-7.44,12.88l-6.92,12.04l3.6,0c4.92-8.68,8-13.8,12.56-21.8c0.28,0.48,14.36,24.88,14.44,24.92l-10.8,0z"/></g><g data-name="business_name" fill="#313131" data="id:311" transform="translate(111.39473692584811,226.39848304276325) scale(0.43289656149004335)"><path d="M0.16,48l11.6-28l3.72,0l11.52,28l-3.36,0l-3.52-8.8l-13.2,0l-3.56,8.8l-3.2,0z M8,36.56l11.04,0l-5.52-13.72z M29.68,56.16l0-28.2l2.92,0l0,2.16q2.6-2.48,6.48-2.48q2.84,0,5.12,1.38t3.62,3.7t1.34,5.24t-1.34,5.26t-3.62,3.72t-5.16,1.38q-1.76,0-3.4-0.6t-3-1.72l0,10.16l-2.96,0z M38.8,45.72q2.12,0,3.8-1.02t2.66-2.76t0.98-3.94t-0.98-3.96t-2.66-2.78t-3.8-1.02q-1.88,0-3.5,0.74t-2.66,2.06l0,9.92q1.04,1.28,2.68,2.02t3.48,0.74z M53.28,56.16l0-28.2l2.92,0l0,2.16q2.6-2.48,6.48-2.48q2.84,0,5.12,1.38t3.62,3.7t1.34,5.24t-1.34,5.26t-3.62,3.72t-5.16,1.38q-1.76,0-3.4-0.6t-3-1.72l0,10.16l-2.96,0z M62.4,45.72q2.12,0,3.8-1.02t2.66-2.76t0.98-3.94t-0.98-3.96t-2.66-2.78t-3.8-1.02q-1.88,0-3.5,0.74t-2.66,2.06l0,9.92q1.04,1.28,2.68,2.02t3.48,0.74z M83.2,48.36q-2.2,0-3.86-0.76t-2.6-2.12t-0.94-3.16q0-2.84,2.16-4.48t5.84-1.64q3.24,0,5.88,1.36l0-2.64q0-2.4-1.36-3.62t-3.96-1.22q-1.48,0-2.98,0.42t-3.3,1.34l-1.12-2.28q2.16-1.04,4-1.52t3.68-0.48q3.8,0,5.86,1.8t2.06,5.16l0,13.48l-2.88,0l0-1.96q-1.36,1.16-2.98,1.74t-3.5,0.58z M78.64,42.24q0,1.68,1.42,2.74t3.66,1.06q1.8,0,3.28-0.56t2.68-1.76l0-3.76q-1.24-0.84-2.64-1.22t-3.16-0.38q-2.4,0-3.82,1.06t-1.42,2.82z M97.52,48l0-28l2.96-0.68l0,28.68l-2.96,0z M111.84,48.36q-2.2,0-3.86-0.76t-2.6-2.12t-0.94-3.16q0-2.84,2.16-4.48t5.84-1.64q3.24,0,5.88,1.36l0-2.64q0-2.4-1.36-3.62t-3.96-1.22q-1.48,0-2.98,0.42t-3.3,1.34l-1.12-2.28q2.16-1.04,4-1.52t3.68-0.48q3.8,0,5.86,1.8t2.06,5.16l0,13.48l-2.88,0l0-1.96q-1.36,1.16-2.98,1.74t-3.5,0.58z M107.28,42.24q0,1.68,1.42,2.74t3.66,1.06q1.8,0,3.28-0.56t2.68-1.76l0-3.76q-1.24-0.84-2.64-1.22t-3.16-0.38q-2.4,0-3.82,1.06t-1.42,2.82z M135.44,48.36q-2.84,0-5.16-1.38t-3.68-3.74t-1.36-5.28t1.36-5.26t3.68-3.74t5.16-1.4q2.2,0,4.24,0.82t3.6,2.34l-1.88,2.16q-1.2-1.28-2.74-1.94t-3.18-0.66q-2.04,0-3.7,1.02t-2.64,2.76t-0.98,3.9t0.98,3.92t2.66,2.78t3.72,1.02q1.64,0,3.1-0.64t2.74-1.88l1.84,2q-1.6,1.52-3.6,2.36t-4.16,0.84z M146.68,48l0-28l2.96-0.68l0,11q2.36-2.76,6.32-2.76q2.28,0,4.02,0.98t2.72,2.72t0.98,4.06l0,12.68l-2.92,0l0-12.08q0-2.68-1.5-4.22t-4.1-1.54q-1.8,0-3.2,0.8t-2.32,2.28l0,14.76l-2.96,0z M168.64,48l0-20.04l2.96,0l0,20.04l-2.96,0z M170.12,24.12q-0.8,0-1.4-0.6t-0.6-1.44q0-0.8,0.6-1.38t1.4-0.58q0.84,0,1.42,0.58t0.58,1.42q0,0.8-0.58,1.4t-1.42,0.6z M182.96,48.36q-2.2,0-3.86-0.76t-2.6-2.12t-0.94-3.16q0-2.84,2.16-4.48t5.84-1.64q3.24,0,5.88,1.36l0-2.64q0-2.4-1.36-3.62t-3.96-1.22q-1.48,0-2.98,0.42t-3.3,1.34l-1.12-2.28q2.16-1.04,4-1.52t3.68-0.48q3.8,0,5.86,1.8t2.06,5.16l0,13.48l-2.88,0l0-1.96q-1.36,1.16-2.98,1.74t-3.5,0.58z M178.4,42.24q0,1.68,1.42,2.74t3.66,1.06q1.8,0,3.28-0.56t2.68-1.76l0-3.76q-1.24-0.84-2.64-1.22t-3.16-0.38q-2.4,0-3.82,1.06t-1.42,2.82z M197.28,48l0-20.04l2.96,0l0,2.36q2.36-2.76,6.32-2.76q2.28,0,4.02,0.98t2.72,2.72t0.98,4.06l0,12.68l-2.92,0l0-12.08q0-2.68-1.5-4.22t-4.1-1.54q-1.8,0-3.2,0.8t-2.32,2.28l0,14.76l-2.96,0z  M232.76,48l-6.04-28l3.12,0l4.76,23.12l6.92-23.12l3,0l6.92,23.04l4.8-23.04l3,0l-6.04,28l-3.12,0l-7.08-23.72l-7.12,23.72l-3.12,0z M272.52,48.36q-2.88,0-5.22-1.38t-3.72-3.74t-1.38-5.28q0-2.88,1.32-5.22t3.56-3.72t5-1.38q2.68,0,4.82,1.38t3.4,3.72t1.26,5.22l0,0.92l-16.44,0q0.24,1.96,1.26,3.52t2.66,2.46t3.6,0.9q1.56,0,3.04-0.48t2.48-1.36l1.84,1.96q-1.68,1.24-3.5,1.86t-3.98,0.62z M265.2,36.52l13.4,0q-0.24-1.8-1.18-3.22t-2.34-2.24t-3.08-0.82q-1.72,0-3.16,0.8t-2.4,2.22t-1.24,3.26z M285.68,48l0-28l2.96-0.68l0,10.76q2.56-2.44,6.44-2.44q2.84,0,5.12,1.38t3.62,3.7t1.34,5.24t-1.34,5.26t-3.62,3.72t-5.16,1.38q-1.76,0-3.42-0.6t-3.02-1.72l0,2l-2.92,0z M294.8,45.72q2.12,0,3.8-1.02t2.66-2.76t0.98-3.94t-0.98-3.96t-2.66-2.78t-3.8-1.02q-1.88,0-3.5,0.74t-2.66,2.06l0,9.92q1.04,1.28,2.68,2.02t3.48,0.74z M312.96,48l-5.64-20.04l2.92,0l4.32,16l5-16l2.64,0l4.96,16l4.36-16l2.8,0l-5.68,20.04l-2.84,0l-4.96-16.04l-5,16.04l-2.88,0z M346.72,48.4q-2.84,0-5.18-1.38t-3.7-3.74t-1.36-5.28t1.36-5.28t3.7-3.74t5.18-1.38q2.88,0,5.2,1.38t3.68,3.74t1.36,5.28t-1.36,5.28t-3.68,3.74t-5.2,1.38z M346.72,45.76q2.04,0,3.7-1.04t2.64-2.8t0.98-3.92q0-2.2-0.98-3.94t-2.64-2.78t-3.7-1.04t-3.7,1.04t-2.64,2.78t-0.98,3.94q0,2.16,0.98,3.92t2.64,2.8t3.7,1.04z M361.08,48l0-20.04l2.96,0l0,2.84q0.92-1.56,2.34-2.42t3.26-0.86q1.04,0,1.88,0.28l0,2.72q-0.52-0.2-1.04-0.28t-1.04-0.08q-1.84,0-3.22,1.06t-2.18,3.06l0,13.72l-2.96,0z M374.92,48l0-28l2.96-0.68l0,17.68l10.48-9.04l3.6,0l-11,9.52l11.52,10.52l-4.04,0l-10.56-9.6l0,9.6l-2.96,0z M401.08,48.4q-2.48,0-4.66-0.82t-3.78-2.3l1.8-1.92q1.4,1.28,3.08,1.98t3.44,0.7q2.4,0,3.92-1t1.52-2.6q0-1.32-0.9-2.06t-2.82-1.02l-3.48-0.48q-3-0.44-4.46-1.8t-1.46-3.68q0-1.68,0.96-3t2.66-2.08t3.9-0.76t4.12,0.64t3.76,2l-1.56,2q-1.68-1.16-3.26-1.7t-3.22-0.54q-2.08,0-3.36,0.92t-1.28,2.4q0,1.36,0.88,2.06t2.84,0.98l3.48,0.48q3,0.4,4.5,1.76t1.5,3.72q0,1.72-1.08,3.12t-2.9,2.2t-4.14,0.8z"/></g></svg>